Coordinates
version=1
nRows=9
nColumns=36
inDegrees=yes

Units are S.I. units (second, meters, Newtons, ...)
If the header above contains a line with 'inDegrees', this indicates whether rotational values are in degrees (yes) or radians (no).

endheader
time	pelvis_tilt	pelvis_list	pelvis_rotation	pelvis_tx	pelvis_ty	pelvis_tz	hip_flexion_r	hip_adduction_r	hip_rotation_r	knee_angle_r	knee_angle_r_beta	ankle_angle_r	subtalar_angle_r	mtp_angle_r	hip_flexion_l	hip_adduction_l	hip_rotation_l	knee_angle_l	knee_angle_l_beta	ankle_angle_l	subtalar_angle_l	mtp_angle_l	lumbar_extension	lumbar_bending	lumbar_rotation	arm_flex_r	arm_add_r	arm_rot_r	elbow_flex_r	pro_sup_r	arm_flex_l	arm_add_l	arm_rot_l	elbow_flex_l	pro_sup_l
      3.21666670	     17.60353109	     -3.49795719	      9.75199621	      0.02259210	      0.99603428	      0.00522620	     18.09987845	     -0.67078124	     -4.05204761	      6.30759778	      0.11008835	     34.95660365	     21.14565554	     -7.49999987	      4.12539015	     -1.29311126	      5.04259404	     40.22607140	      0.70207739	     29.33835577	      0.40254661	     -7.49999987	    -44.50582781	     13.61621738	    -11.50940908	     10.14753890	     -0.54869162	      0.18734219	     42.30410747	     99.53055349	     -1.34758315	     -7.70838579	     -0.62201484	     35.27891773	     93.17604878
      3.23333330	     12.51275727	      9.90970226	      2.30394214	      0.04276295	      0.95340027	      0.01551140	     26.66581696	    -18.78512607	      1.84794484	      5.13984667	      0.08970725	     -0.62507992	      1.51923288	     -7.49999987	     19.48162674	     17.00397790	     -1.88340613	     46.27870687	      0.80771581	      8.05290846	    -13.23793794	     -7.49999987	    -29.40309358	     -7.67660342	    -11.33290789	      4.99487479	      0.84325614	      1.09273454	     35.60293735	     92.67580960	     -4.92133543	    -10.75659731	      5.10445184	     32.96446058	     88.65762376
      3.25000000	     14.32310864	      4.53586320	     -0.29038052	      0.03984014	      0.95326406	      0.01268988	     25.48280296	    -12.03945785	      2.04840034	      6.60138754	      0.11521595	    -10.89524549	     -9.58409137	     -7.49999987	     21.14498288	     14.96444610	     -1.42324009	     57.63755670	      1.00596514	      7.50172494	    -21.46958515	     -7.49999987	    -29.65683674	     -4.39238143	     -3.95338811	      4.38159554	     -1.40306381	     -0.60869827	     35.42634056	     93.56493764	     -2.29925737	     -8.80243483	      6.60231452	     30.66057129	     92.55842493
      3.26666670	     15.67755235	     -0.59782422	     -1.01237590	      0.04542191	      0.95237162	      0.01165971	     22.42683761	     -4.18409671	     -1.30421182	      5.17921002	      0.09039427	     -9.79278475	    -10.05521702	     -7.49999987	     15.08308928	     10.87895051	      1.97055817	     62.59923750	      1.09256280	     18.59044637	    -22.04458668	     -7.49999987	    -27.44284469	     -0.32946172	     -0.08195481	      4.18286960	     -3.01620890	      0.57944177	     32.40496273	     93.75355045	     -1.79227993	     -7.11795598	      7.06113356	     27.78210333	     93.28550720
      3.28333330	     15.30905395	      8.38087683	     -6.84224214	      0.04541793	      0.94902141	      0.01849833	     20.84608576	    -10.75094964	     -0.71267260	      0.23754361	      0.00414592	    -10.43069883	      1.18571414	     -7.49999987	     26.04563238	     20.30116330	      1.37729298	     58.64909366	      1.02361979	     -6.98821768	    -27.60666243	     -7.49999987	    -30.00995932	    -10.71284681	      0.00950559	      3.81370062	     -1.69173746	     -1.01847966	     35.51792853	     93.50453540	     -2.26704782	     -8.78514419	      7.32039021	     30.98852386	     93.44479303
      3.30000000	     13.13561676	     10.26436795	    -13.47794397	      0.04166081	      0.94905262	      0.02159662	     24.53892010	     -9.50938393	     -0.67765687	      0.18241030	      0.00318366	     -1.89362641	      9.18163384	     -7.49999987	     37.38499525	     21.08056809	     10.68426524	     49.98136782	      0.87233943	    -33.58072215	     -3.10679359	     -7.49999987	    -30.53962676	    -14.85672783	      3.79077008	      3.84735034	     -2.58664943	     -0.78233112	     38.17628194	     91.59660485	     -2.43496375	     -7.86049801	      5.71311087	     32.85946018	     91.20506565
      3.31666670	     11.99840799	      4.99275442	    -11.60752395	      0.04382456	      0.95627454	      0.01553468	     23.32868842	     -4.55436641	     -2.59140431	      0.15530741	      0.00271063	      3.94909896	      8.12073164	     -7.49999987	     33.12331443	     18.45504727	     14.34195873	     50.74319944	      0.88563590	    -34.66262557	    -10.49333732	     -7.49999987	    -29.97846682	     -9.19915943	      6.60303872	      3.53906869	     -4.10263668	     -1.26941905	     37.05060714	     91.80896661	     -0.61163331	     -6.31302194	      6.63524669	     30.56769325	     92.16538194
      3.33333330	     11.31755551	      4.11536627	     -3.17014205	      0.04386853	      0.96444090	      0.00349408	     18.09776916	     -6.13424347	     -6.99172021	      0.18262514	      0.00318741	     13.31452333	      8.70696869	     -7.49999987	     13.68909647	     14.97290016	      9.58779089	     57.82480856	      1.00923330	     35.02698314	    -13.82631090	     -7.49999987	    -28.35296707	     -6.99969935	      4.87919535	      1.50793663	     -3.23744846	     -4.83696382	     34.09852724	     90.73517863	      3.26133062	     -7.10484156	     12.84322813	     26.60085222	     95.41058576
      3.35000000	     11.38986345	     -1.82932641	     -0.32524582	      0.04977989	      0.96495161	      0.00135840	     14.77809588	      0.51989889	     -7.62685433	      0.28521155	      0.00497788	     14.62012984	     13.21498892	     -7.49999987	      0.90625674	      6.41162862	      7.94011217	     52.72259897	      0.92018294	     49.69144013	    -12.11958315	     -7.49999987	    -27.65567581	      0.10754943	      5.46368799	      0.65651191	     -4.18427693	     -4.70956631	     33.41441043	     91.03198849	      3.12940285	     -6.06698638	     13.09037636	     25.47879698	     96.05005109
